<mxfile host="65bd71144e">
    <diagram id="R2lEEEUBdFMjLlhIrx00" name="Page-1">
        <mxGraphModel dx="2034" dy="794" grid="1" gridSize="10" guides="1" tooltips="1" connect="1" arrows="1" fold="1" page="1" pageScale="1" pageWidth="850" pageHeight="1100" math="0" shadow="0" extFonts="Permanent Marker^https://fonts.googleapis.com/css?family=Permanent+Marker">
            <root>
                <mxCell id="0"/>
                <mxCell id="1" parent="0"/>
                <mxCell id="bSjY6kH0Yjt8PTvNk5gp-2" value="Genre" style="whiteSpace=wrap;html=1;align=center;" parent="1" vertex="1">
                    <mxGeometry x="580.57" y="392.0000000000001" width="100" height="40" as="geometry"/>
                </mxCell>
                <mxCell id="76" style="edgeStyle=none;html=1;exitX=0.75;exitY=1;exitDx=0;exitDy=0;entryX=0.5;entryY=0;entryDx=0;entryDy=0;endArrow=none;endFill=0;" parent="1" source="bSjY6kH0Yjt8PTvNk5gp-6" target="bSjY6kH0Yjt8PTvNk5gp-175" edge="1">
                    <mxGeometry relative="1" as="geometry"/>
                </mxCell>
                <mxCell id="bSjY6kH0Yjt8PTvNk5gp-6" value="Book" style="whiteSpace=wrap;html=1;align=center;" parent="1" vertex="1">
                    <mxGeometry x="240" y="390" width="100" height="40" as="geometry"/>
                </mxCell>
                <mxCell id="bSjY6kH0Yjt8PTvNk5gp-7" value="Borrower" style="whiteSpace=wrap;html=1;align=center;" parent="1" vertex="1">
                    <mxGeometry x="-190" y="640.67" width="100" height="40" as="geometry"/>
                </mxCell>
                <mxCell id="bSjY6kH0Yjt8PTvNk5gp-9" value="Loan" style="whiteSpace=wrap;html=1;align=center;" parent="1" vertex="1">
                    <mxGeometry x="240" y="633.67" width="100" height="40" as="geometry"/>
                </mxCell>
                <mxCell id="bSjY6kH0Yjt8PTvNk5gp-10" value="Reservation" style="whiteSpace=wrap;html=1;align=center;" parent="1" vertex="1">
                    <mxGeometry x="-190" y="392" width="100" height="40" as="geometry"/>
                </mxCell>
                <mxCell id="bSjY6kH0Yjt8PTvNk5gp-21" value="" style="edgeStyle=orthogonalEdgeStyle;rounded=0;orthogonalLoop=1;jettySize=auto;html=1;endArrow=none;endFill=0;" parent="1" source="bSjY6kH0Yjt8PTvNk5gp-11" target="bSjY6kH0Yjt8PTvNk5gp-20" edge="1">
                    <mxGeometry relative="1" as="geometry"/>
                </mxCell>
                <mxCell id="bSjY6kH0Yjt8PTvNk5gp-22" style="rounded=0;orthogonalLoop=1;jettySize=auto;html=1;exitX=0.25;exitY=1;exitDx=0;exitDy=0;endArrow=none;endFill=0;" parent="1" source="bSjY6kH0Yjt8PTvNk5gp-11" target="bSjY6kH0Yjt8PTvNk5gp-18" edge="1">
                    <mxGeometry relative="1" as="geometry"/>
                </mxCell>
                <mxCell id="bSjY6kH0Yjt8PTvNk5gp-23" style="edgeStyle=none;rounded=0;orthogonalLoop=1;jettySize=auto;html=1;exitX=0.75;exitY=1;exitDx=0;exitDy=0;entryX=0.411;entryY=0.013;entryDx=0;entryDy=0;entryPerimeter=0;endArrow=none;endFill=0;" parent="1" source="bSjY6kH0Yjt8PTvNk5gp-11" target="bSjY6kH0Yjt8PTvNk5gp-19" edge="1">
                    <mxGeometry relative="1" as="geometry"/>
                </mxCell>
                <mxCell id="bSjY6kH0Yjt8PTvNk5gp-11" value="Fine" style="whiteSpace=wrap;html=1;align=center;" parent="1" vertex="1">
                    <mxGeometry x="240" y="783.67" width="100" height="40" as="geometry"/>
                </mxCell>
                <mxCell id="bSjY6kH0Yjt8PTvNk5gp-13" value="" style="endArrow=none;html=1;rounded=0;exitX=0.5;exitY=1;exitDx=0;exitDy=0;entryX=0.5;entryY=0;entryDx=0;entryDy=0;" parent="1" source="bSjY6kH0Yjt8PTvNk5gp-9" target="bSjY6kH0Yjt8PTvNk5gp-11" edge="1">
                    <mxGeometry relative="1" as="geometry">
                        <mxPoint x="340" y="693.67" as="sourcePoint"/>
                        <mxPoint x="500" y="693.67" as="targetPoint"/>
                    </mxGeometry>
                </mxCell>
                <mxCell id="bSjY6kH0Yjt8PTvNk5gp-15" value="N" style="resizable=0;html=1;align=right;verticalAlign=bottom;" parent="bSjY6kH0Yjt8PTvNk5gp-13" connectable="0" vertex="1">
                    <mxGeometry x="1" relative="1" as="geometry">
                        <mxPoint x="10" as="offset"/>
                    </mxGeometry>
                </mxCell>
                <mxCell id="bSjY6kH0Yjt8PTvNk5gp-16" value="credit" style="shape=rhombus;perimeter=rhombusPerimeter;whiteSpace=wrap;html=1;align=center;" parent="1" vertex="1">
                    <mxGeometry x="230" y="693.67" width="120" height="60" as="geometry"/>
                </mxCell>
                <mxCell id="bSjY6kH0Yjt8PTvNk5gp-18" value="Amount" style="ellipse;whiteSpace=wrap;html=1;align=center;" parent="1" vertex="1">
                    <mxGeometry x="170" y="853.67" width="100" height="40" as="geometry"/>
                </mxCell>
                <mxCell id="bSjY6kH0Yjt8PTvNk5gp-19" value="Paid" style="ellipse;whiteSpace=wrap;html=1;align=center;" parent="1" vertex="1">
                    <mxGeometry x="310" y="853.67" width="100" height="40" as="geometry"/>
                </mxCell>
                <mxCell id="bSjY6kH0Yjt8PTvNk5gp-20" value="Fine_ID" style="ellipse;whiteSpace=wrap;html=1;align=center;fontStyle=4" parent="1" vertex="1">
                    <mxGeometry x="100" y="783.67" width="100" height="40" as="geometry"/>
                </mxCell>
                <mxCell id="bSjY6kH0Yjt8PTvNk5gp-36" value="1" style="resizable=0;html=1;align=right;verticalAlign=bottom;" parent="1" connectable="0" vertex="1">
                    <mxGeometry x="299.99909930915493" y="690.6743817937581" as="geometry"/>
                </mxCell>
                <mxCell id="bSjY6kH0Yjt8PTvNk5gp-37" value="1" style="resizable=0;html=1;align=right;verticalAlign=bottom;" parent="1" connectable="0" vertex="1">
                    <mxGeometry x="299.99909930915493" y="448.00438179375817" as="geometry"/>
                </mxCell>
                <mxCell id="bSjY6kH0Yjt8PTvNk5gp-54" style="edgeStyle=none;rounded=0;orthogonalLoop=1;jettySize=auto;html=1;exitX=0.017;exitY=0.608;exitDx=0;exitDy=0;entryX=1;entryY=0.5;entryDx=0;entryDy=0;endArrow=none;endFill=0;exitPerimeter=0;" parent="1" source="bSjY6kH0Yjt8PTvNk5gp-38" target="bSjY6kH0Yjt8PTvNk5gp-9" edge="1">
                    <mxGeometry relative="1" as="geometry"/>
                </mxCell>
                <mxCell id="bSjY6kH0Yjt8PTvNk5gp-38" value="Loan_ID" style="ellipse;whiteSpace=wrap;html=1;align=center;fontStyle=4" parent="1" vertex="1">
                    <mxGeometry x="390" y="610" width="100" height="40" as="geometry"/>
                </mxCell>
                <mxCell id="11" value="" style="edgeStyle=none;html=1;endArrow=none;endFill=0;" parent="1" source="bSjY6kH0Yjt8PTvNk5gp-43" target="Q7LSnnGv4zC_KHV4gUv7-25" edge="1">
                    <mxGeometry relative="1" as="geometry"/>
                </mxCell>
                <mxCell id="bSjY6kH0Yjt8PTvNk5gp-43" value="Loan_date" style="ellipse;whiteSpace=wrap;html=1;align=center;" parent="1" vertex="1">
                    <mxGeometry x="380" y="540" width="100" height="40" as="geometry"/>
                </mxCell>
                <mxCell id="10" value="" style="edgeStyle=none;html=1;endArrow=none;endFill=0;" parent="1" source="bSjY6kH0Yjt8PTvNk5gp-44" target="Q7LSnnGv4zC_KHV4gUv7-25" edge="1">
                    <mxGeometry relative="1" as="geometry"/>
                </mxCell>
                <mxCell id="bSjY6kH0Yjt8PTvNk5gp-44" value="Due_date" style="ellipse;whiteSpace=wrap;html=1;align=center;" parent="1" vertex="1">
                    <mxGeometry x="100" y="540" width="100" height="40" as="geometry"/>
                </mxCell>
                <mxCell id="bSjY6kH0Yjt8PTvNk5gp-48" style="edgeStyle=none;rounded=0;orthogonalLoop=1;jettySize=auto;html=1;exitX=0;exitY=0;exitDx=0;exitDy=0;entryX=1;entryY=1;entryDx=0;entryDy=0;endArrow=none;endFill=0;" parent="1" source="bSjY6kH0Yjt8PTvNk5gp-47" target="bSjY6kH0Yjt8PTvNk5gp-9" edge="1">
                    <mxGeometry relative="1" as="geometry"/>
                </mxCell>
                <mxCell id="bSjY6kH0Yjt8PTvNk5gp-47" value="Returned_date" style="ellipse;whiteSpace=wrap;html=1;align=center;" parent="1" vertex="1">
                    <mxGeometry x="375" y="713.67" width="100" height="40" as="geometry"/>
                </mxCell>
                <mxCell id="bSjY6kH0Yjt8PTvNk5gp-53" value="has" style="shape=rhombus;perimeter=rhombusPerimeter;whiteSpace=wrap;html=1;align=center;" parent="1" vertex="1">
                    <mxGeometry x="20" y="629.67" width="120" height="60" as="geometry"/>
                </mxCell>
                <mxCell id="bSjY6kH0Yjt8PTvNk5gp-59" style="edgeStyle=none;rounded=0;orthogonalLoop=1;jettySize=auto;html=1;exitX=0.5;exitY=0;exitDx=0;exitDy=0;entryX=0.61;entryY=0.998;entryDx=0;entryDy=0;endArrow=none;endFill=0;entryPerimeter=0;" parent="1" source="bSjY6kH0Yjt8PTvNk5gp-58" target="bSjY6kH0Yjt8PTvNk5gp-7" edge="1">
                    <mxGeometry relative="1" as="geometry"/>
                </mxCell>
                <mxCell id="bSjY6kH0Yjt8PTvNk5gp-58" value="Borrower_ID" style="ellipse;whiteSpace=wrap;html=1;align=center;fontStyle=4" parent="1" vertex="1">
                    <mxGeometry x="-170" y="730" width="100" height="40" as="geometry"/>
                </mxCell>
                <mxCell id="bSjY6kH0Yjt8PTvNk5gp-86" style="edgeStyle=none;rounded=0;orthogonalLoop=1;jettySize=auto;html=1;exitX=0;exitY=0.5;exitDx=0;exitDy=0;entryX=1;entryY=0.5;entryDx=0;entryDy=0;endArrow=none;endFill=0;" parent="1" source="bSjY6kH0Yjt8PTvNk5gp-83" target="bSjY6kH0Yjt8PTvNk5gp-2" edge="1">
                    <mxGeometry relative="1" as="geometry"/>
                </mxCell>
                <mxCell id="bSjY6kH0Yjt8PTvNk5gp-83" value="Genre_ID" style="ellipse;whiteSpace=wrap;html=1;align=center;fontStyle=4" parent="1" vertex="1">
                    <mxGeometry x="720.57" y="400.0000000000001" width="100" height="40" as="geometry"/>
                </mxCell>
                <mxCell id="bSjY6kH0Yjt8PTvNk5gp-85" style="rounded=0;orthogonalLoop=1;jettySize=auto;html=1;exitX=0.5;exitY=1;exitDx=0;exitDy=0;entryX=0.59;entryY=-0.025;entryDx=0;entryDy=0;endArrow=none;endFill=0;entryPerimeter=0;" parent="1" source="bSjY6kH0Yjt8PTvNk5gp-84" target="bSjY6kH0Yjt8PTvNk5gp-2" edge="1">
                    <mxGeometry relative="1" as="geometry"/>
                </mxCell>
                <mxCell id="bSjY6kH0Yjt8PTvNk5gp-84" value="Name" style="ellipse;whiteSpace=wrap;html=1;align=center;" parent="1" vertex="1">
                    <mxGeometry x="610.57" y="312.0000000000001" width="100" height="40" as="geometry"/>
                </mxCell>
                <mxCell id="bSjY6kH0Yjt8PTvNk5gp-101" value="has" style="shape=rhombus;perimeter=rhombusPerimeter;whiteSpace=wrap;html=1;align=center;" parent="1" vertex="1">
                    <mxGeometry x="20" y="382" width="120" height="60" as="geometry"/>
                </mxCell>
                <mxCell id="bSjY6kH0Yjt8PTvNk5gp-107" value="" style="endArrow=none;html=1;rounded=0;exitX=1;exitY=0.5;exitDx=0;exitDy=0;entryX=0;entryY=0.75;entryDx=0;entryDy=0;" parent="1" source="bSjY6kH0Yjt8PTvNk5gp-101" edge="1">
                    <mxGeometry relative="1" as="geometry">
                        <mxPoint x="150" y="422" as="sourcePoint"/>
                        <mxPoint x="240" y="412" as="targetPoint"/>
                        <Array as="points">
                            <mxPoint x="210" y="412"/>
                        </Array>
                    </mxGeometry>
                </mxCell>
                <mxCell id="bSjY6kH0Yjt8PTvNk5gp-108" value="1" style="resizable=0;html=1;align=right;verticalAlign=bottom;" parent="bSjY6kH0Yjt8PTvNk5gp-107" connectable="0" vertex="1">
                    <mxGeometry x="1" relative="1" as="geometry"/>
                </mxCell>
                <mxCell id="bSjY6kH0Yjt8PTvNk5gp-110" value="place" style="shape=rhombus;perimeter=rhombusPerimeter;whiteSpace=wrap;html=1;align=center;" parent="1" vertex="1">
                    <mxGeometry x="-200" y="543.67" width="120" height="60" as="geometry"/>
                </mxCell>
                <mxCell id="bSjY6kH0Yjt8PTvNk5gp-112" value="" style="endArrow=none;html=1;rounded=0;exitX=0.5;exitY=1;exitDx=0;exitDy=0;entryX=0.5;entryY=0;entryDx=0;entryDy=0;" parent="1" source="bSjY6kH0Yjt8PTvNk5gp-110" target="bSjY6kH0Yjt8PTvNk5gp-7" edge="1">
                    <mxGeometry relative="1" as="geometry">
                        <mxPoint x="-50" y="593.67" as="sourcePoint"/>
                        <mxPoint x="110" y="593.67" as="targetPoint"/>
                    </mxGeometry>
                </mxCell>
                <mxCell id="bSjY6kH0Yjt8PTvNk5gp-113" value="1" style="resizable=0;html=1;align=right;verticalAlign=bottom;" parent="bSjY6kH0Yjt8PTvNk5gp-112" connectable="0" vertex="1">
                    <mxGeometry x="1" relative="1" as="geometry">
                        <mxPoint x="10" as="offset"/>
                    </mxGeometry>
                </mxCell>
                <mxCell id="bSjY6kH0Yjt8PTvNk5gp-114" value="" style="endArrow=none;html=1;rounded=0;entryX=0.5;entryY=1;entryDx=0;entryDy=0;exitX=0.5;exitY=0;exitDx=0;exitDy=0;" parent="1" source="bSjY6kH0Yjt8PTvNk5gp-110" target="bSjY6kH0Yjt8PTvNk5gp-10" edge="1">
                    <mxGeometry relative="1" as="geometry">
                        <mxPoint x="-290" y="460" as="sourcePoint"/>
                        <mxPoint x="-130" y="460" as="targetPoint"/>
                    </mxGeometry>
                </mxCell>
                <mxCell id="bSjY6kH0Yjt8PTvNk5gp-115" value="N" style="resizable=0;html=1;align=right;verticalAlign=bottom;" parent="bSjY6kH0Yjt8PTvNk5gp-114" connectable="0" vertex="1">
                    <mxGeometry x="1" relative="1" as="geometry">
                        <mxPoint x="11" y="18" as="offset"/>
                    </mxGeometry>
                </mxCell>
                <mxCell id="65" style="edgeStyle=none;html=1;exitX=1;exitY=1;exitDx=0;exitDy=0;entryX=0;entryY=0;entryDx=0;entryDy=0;endArrow=none;endFill=0;" parent="1" source="bSjY6kH0Yjt8PTvNk5gp-120" target="bSjY6kH0Yjt8PTvNk5gp-110" edge="1">
                    <mxGeometry relative="1" as="geometry"/>
                </mxCell>
                <mxCell id="bSjY6kH0Yjt8PTvNk5gp-120" value="Reservation_date" style="ellipse;whiteSpace=wrap;html=1;align=center;" parent="1" vertex="1">
                    <mxGeometry x="-270" y="503.66999999999996" width="100" height="40" as="geometry"/>
                </mxCell>
                <mxCell id="14" value="" style="edgeStyle=none;html=1;endArrow=none;endFill=0;" parent="1" source="bSjY6kH0Yjt8PTvNk5gp-122" target="bSjY6kH0Yjt8PTvNk5gp-10" edge="1">
                    <mxGeometry relative="1" as="geometry"/>
                </mxCell>
                <mxCell id="bSjY6kH0Yjt8PTvNk5gp-122" value="Reservation_ID" style="ellipse;whiteSpace=wrap;html=1;align=center;fontStyle=4" parent="1" vertex="1">
                    <mxGeometry x="-310" y="392" width="100" height="40" as="geometry"/>
                </mxCell>
                <mxCell id="bSjY6kH0Yjt8PTvNk5gp-175" value="Book_ID" style="ellipse;whiteSpace=wrap;html=1;align=center;fontStyle=4" parent="1" vertex="1">
                    <mxGeometry x="300" y="469.99999999999994" width="100" height="40" as="geometry"/>
                </mxCell>
                <mxCell id="bSjY6kH0Yjt8PTvNk5gp-180" style="edgeStyle=none;rounded=0;orthogonalLoop=1;jettySize=auto;html=1;exitX=0.5;exitY=1;exitDx=0;exitDy=0;entryX=0.5;entryY=0;entryDx=0;entryDy=0;endArrow=none;endFill=0;" parent="1" source="bSjY6kH0Yjt8PTvNk5gp-179" target="bSjY6kH0Yjt8PTvNk5gp-6" edge="1">
                    <mxGeometry relative="1" as="geometry"/>
                </mxCell>
                <mxCell id="bSjY6kH0Yjt8PTvNk5gp-179" value="Title" style="ellipse;whiteSpace=wrap;html=1;align=center;" parent="1" vertex="1">
                    <mxGeometry x="230" y="311.99999999999994" width="100" height="40" as="geometry"/>
                </mxCell>
                <mxCell id="78" style="edgeStyle=none;html=1;exitX=0.644;exitY=0;exitDx=0;exitDy=0;entryX=0.25;entryY=1;entryDx=0;entryDy=0;endArrow=none;endFill=0;exitPerimeter=0;" parent="1" source="bSjY6kH0Yjt8PTvNk5gp-189" target="bSjY6kH0Yjt8PTvNk5gp-6" edge="1">
                    <mxGeometry relative="1" as="geometry"/>
                </mxCell>
                <mxCell id="bSjY6kH0Yjt8PTvNk5gp-189" value="ISBN" style="ellipse;whiteSpace=wrap;html=1;align=center;" parent="1" vertex="1">
                    <mxGeometry x="150" y="463.66999999999996" width="100" height="40" as="geometry"/>
                </mxCell>
                <mxCell id="Q7LSnnGv4zC_KHV4gUv7-23" style="edgeStyle=none;rounded=0;orthogonalLoop=1;jettySize=auto;html=1;exitX=1;exitY=0.5;exitDx=0;exitDy=0;entryX=0;entryY=0.5;entryDx=0;entryDy=0;endArrow=none;endFill=0;" parent="1" edge="1">
                    <mxGeometry relative="1" as="geometry">
                        <mxPoint x="-430" y="649.6700000000001" as="sourcePoint"/>
                    </mxGeometry>
                </mxCell>
                <mxCell id="Q7LSnnGv4zC_KHV4gUv7-24" style="edgeStyle=none;rounded=0;orthogonalLoop=1;jettySize=auto;html=1;exitX=1;exitY=1;exitDx=0;exitDy=0;endArrow=none;endFill=0;" parent="1" edge="1">
                    <mxGeometry relative="1" as="geometry">
                        <mxPoint x="-394.644660940673" y="604.1421356237311" as="sourcePoint"/>
                    </mxGeometry>
                </mxCell>
                <mxCell id="Q7LSnnGv4zC_KHV4gUv7-22" style="edgeStyle=none;rounded=0;orthogonalLoop=1;jettySize=auto;html=1;exitX=1;exitY=0;exitDx=0;exitDy=0;entryX=0;entryY=1;entryDx=0;entryDy=0;endArrow=none;endFill=0;" parent="1" edge="1">
                    <mxGeometry relative="1" as="geometry">
                        <mxPoint x="-414.644660940673" y="695.5278643762695" as="sourcePoint"/>
                    </mxGeometry>
                </mxCell>
                <mxCell id="Q7LSnnGv4zC_KHV4gUv7-25" value="loan" style="shape=rhombus;perimeter=rhombusPerimeter;whiteSpace=wrap;html=1;align=center;" parent="1" vertex="1">
                    <mxGeometry x="230" y="530" width="120" height="60" as="geometry"/>
                </mxCell>
                <mxCell id="Q7LSnnGv4zC_KHV4gUv7-26" value="" style="endArrow=none;html=1;rounded=0;exitX=0.5;exitY=1;exitDx=0;exitDy=0;entryX=0.5;entryY=0;entryDx=0;entryDy=0;" parent="1" source="bSjY6kH0Yjt8PTvNk5gp-6" target="Q7LSnnGv4zC_KHV4gUv7-25" edge="1">
                    <mxGeometry relative="1" as="geometry">
                        <mxPoint x="290" y="430" as="sourcePoint"/>
                        <mxPoint x="290" y="633.6700000000001" as="targetPoint"/>
                    </mxGeometry>
                </mxCell>
                <mxCell id="2" value="" style="shape=link;html=1;rounded=0;entryX=0;entryY=0.5;entryDx=0;entryDy=0;exitX=1;exitY=0.5;exitDx=0;exitDy=0;" parent="1" source="bSjY6kH0Yjt8PTvNk5gp-10" target="bSjY6kH0Yjt8PTvNk5gp-101" edge="1">
                    <mxGeometry relative="1" as="geometry">
                        <mxPoint x="-60" y="472" as="sourcePoint"/>
                        <mxPoint x="100" y="472" as="targetPoint"/>
                    </mxGeometry>
                </mxCell>
                <mxCell id="3" value="N" style="resizable=0;html=1;align=right;verticalAlign=bottom;" parent="2" connectable="0" vertex="1">
                    <mxGeometry x="1" relative="1" as="geometry">
                        <mxPoint x="-100" as="offset"/>
                    </mxGeometry>
                </mxCell>
                <mxCell id="4" value="" style="shape=link;html=1;rounded=0;entryX=0.5;entryY=1;entryDx=0;entryDy=0;exitX=0.5;exitY=0;exitDx=0;exitDy=0;" parent="1" source="bSjY6kH0Yjt8PTvNk5gp-9" target="Q7LSnnGv4zC_KHV4gUv7-25" edge="1">
                    <mxGeometry relative="1" as="geometry">
                        <mxPoint x="140" y="603.67" as="sourcePoint"/>
                        <mxPoint x="250" y="603.67" as="targetPoint"/>
                    </mxGeometry>
                </mxCell>
                <mxCell id="5" value="N" style="resizable=0;html=1;align=right;verticalAlign=bottom;" parent="4" connectable="0" vertex="1">
                    <mxGeometry x="1" relative="1" as="geometry">
                        <mxPoint x="14" y="46" as="offset"/>
                    </mxGeometry>
                </mxCell>
                <mxCell id="16" value="has" style="shape=rhombus;perimeter=rhombusPerimeter;whiteSpace=wrap;html=1;align=center;" parent="1" vertex="1">
                    <mxGeometry x="390" y="380" width="120" height="60" as="geometry"/>
                </mxCell>
                <mxCell id="17" value="" style="endArrow=none;html=1;rounded=0;exitX=0;exitY=0.5;exitDx=0;exitDy=0;entryX=1;entryY=0.5;entryDx=0;entryDy=0;" parent="1" source="16" target="bSjY6kH0Yjt8PTvNk5gp-6" edge="1">
                    <mxGeometry relative="1" as="geometry">
                        <mxPoint x="440" y="419" as="sourcePoint"/>
                        <mxPoint x="370" y="419" as="targetPoint"/>
                    </mxGeometry>
                </mxCell>
                <mxCell id="18" value="N" style="resizable=0;html=1;align=right;verticalAlign=bottom;" parent="17" connectable="0" vertex="1">
                    <mxGeometry x="1" relative="1" as="geometry">
                        <mxPoint x="11" as="offset"/>
                    </mxGeometry>
                </mxCell>
                <mxCell id="20" value="" style="endArrow=none;html=1;rounded=0;exitX=1;exitY=0.5;exitDx=0;exitDy=0;entryX=0.003;entryY=0.462;entryDx=0;entryDy=0;entryPerimeter=0;" parent="1" source="16" target="bSjY6kH0Yjt8PTvNk5gp-2" edge="1">
                    <mxGeometry relative="1" as="geometry">
                        <mxPoint x="510" y="409.71" as="sourcePoint"/>
                        <mxPoint x="650" y="409.71" as="targetPoint"/>
                    </mxGeometry>
                </mxCell>
                <mxCell id="21" value="N" style="resizable=0;html=1;align=right;verticalAlign=bottom;" parent="20" connectable="0" vertex="1">
                    <mxGeometry x="1" relative="1" as="geometry">
                        <mxPoint x="-1" y="2" as="offset"/>
                    </mxGeometry>
                </mxCell>
                <mxCell id="82" value="" style="endArrow=none;html=1;rounded=0;exitX=1;exitY=0.5;exitDx=0;exitDy=0;" parent="1" source="bSjY6kH0Yjt8PTvNk5gp-53" edge="1">
                    <mxGeometry relative="1" as="geometry">
                        <mxPoint x="150" y="660.47" as="sourcePoint"/>
                        <mxPoint x="240" y="660" as="targetPoint"/>
                    </mxGeometry>
                </mxCell>
                <mxCell id="83" value="N" style="resizable=0;html=1;align=right;verticalAlign=bottom;" parent="82" connectable="0" vertex="1">
                    <mxGeometry x="1" relative="1" as="geometry">
                        <mxPoint x="-1" as="offset"/>
                    </mxGeometry>
                </mxCell>
                <mxCell id="84" value="" style="endArrow=none;html=1;rounded=0;entryX=1;entryY=0.5;entryDx=0;entryDy=0;exitX=0;exitY=0.5;exitDx=0;exitDy=0;" parent="1" source="bSjY6kH0Yjt8PTvNk5gp-53" target="bSjY6kH0Yjt8PTvNk5gp-7" edge="1">
                    <mxGeometry relative="1" as="geometry">
                        <mxPoint x="10" y="660" as="sourcePoint"/>
                        <mxPoint x="-80" y="660.56" as="targetPoint"/>
                    </mxGeometry>
                </mxCell>
                <mxCell id="85" value="1" style="resizable=0;html=1;align=right;verticalAlign=bottom;" parent="84" connectable="0" vertex="1">
                    <mxGeometry x="1" relative="1" as="geometry">
                        <mxPoint x="10" as="offset"/>
                    </mxGeometry>
                </mxCell>
            </root>
        </mxGraphModel>
    </diagram>
</mxfile>